<?xml version="1.0" encoding="UTF-8"?>
<svg xmlns="http://www.w3.org/2000/svg" xmlns:xlink="http://www.w3.org/1999/xlink" viewBox="0 0 480 480" width="480px" height="480px">
<g id="surface8297486">
<path style=" stroke:none;fill-rule:nonzero;fill:rgb(0%,0%,0%);fill-opacity:1;" d="M 245 451.609375 L 70 348.199219 L 70 141.800781 L 245 38.390625 L 420 141.800781 L 420 348.199219 Z M 90 336.800781 L 245 428.390625 L 400 336.800781 L 400 153.199219 L 245 61.609375 L 90 153.199219 Z M 90 336.800781 "/>
<path style=" stroke:none;fill-rule:nonzero;fill:rgb(0%,0%,0%);fill-opacity:1;" d="M 280 55 C 280 74.328125 264.328125 90 245 90 C 225.667969 90 210 74.328125 210 55 C 210 35.671875 225.667969 20 245 20 C 264.328125 20 280 35.671875 280 55 Z M 280 55 "/>
<path style=" stroke:none;fill-rule:nonzero;fill:rgb(0%,0%,0%);fill-opacity:1;" d="M 280 435 C 280 454.328125 264.328125 470 245 470 C 225.667969 470 210 454.328125 210 435 C 210 415.667969 225.667969 400 245 400 C 264.328125 400 280 415.667969 280 435 Z M 280 435 "/>
<path style=" stroke:none;fill-rule:nonzero;fill:rgb(0%,0%,0%);fill-opacity:1;" d="M 120 335 C 120 354.328125 104.328125 370 85 370 C 65.671875 370 50 354.328125 50 335 C 50 315.667969 65.671875 300 85 300 C 104.328125 300 120 315.667969 120 335 Z M 120 335 "/>
<path style=" stroke:none;fill-rule:nonzero;fill:rgb(0%,0%,0%);fill-opacity:1;" d="M 440 335 C 440 354.328125 424.328125 370 405 370 C 385.667969 370 370 354.328125 370 335 C 370 315.667969 385.667969 300 405 300 C 424.328125 300 440 315.667969 440 335 Z M 440 335 "/>
<path style=" stroke:none;fill-rule:nonzero;fill:rgb(0%,0%,0%);fill-opacity:1;" d="M 120 155 C 120 174.328125 104.328125 190 85 190 C 65.671875 190 50 174.328125 50 155 C 50 135.667969 65.671875 120 85 120 C 104.328125 120 120 135.667969 120 155 Z M 120 155 "/>
<path style=" stroke:none;fill-rule:nonzero;fill:rgb(0%,0%,0%);fill-opacity:1;" d="M 440 155 C 440 174.328125 424.328125 190 405 190 C 385.667969 190 370 174.328125 370 155 C 370 135.667969 385.667969 120 405 120 C 424.328125 120 440 135.667969 440 155 Z M 440 155 "/>
<path style=" stroke:none;fill-rule:nonzero;fill:rgb(0%,0%,0%);fill-opacity:1;" d="M 427.199219 350 L 62.800781 350 L 245 29.78125 Z M 97.199219 330 L 392.800781 330 L 245 70.21875 Z M 97.199219 330 "/>
</g>
</svg>
